<svg id="Layer_1" data-name="Layer 1" xmlns="http://www.w3.org/2000/svg" viewBox="0 0 697.32 104.64"><defs><style>.cls-1{fill:#f9f9fa;}</style></defs><title>LandingPage</title><path class="cls-1" d="M11.63,60.1H35.05v8.54H.69V.86H11.63ZM84,54H55.43L50.25,68.64H38.54l25-66.72H76.07l24.87,66.72H89.22ZM81,45.5,69.74,13.82,58.5,45.5Zm82.91,23.14H152.93L120,18.62v50h-11V1h11l32.92,50.21V1h10.95Zm71.42-34a36.75,36.75,0,0,1-4.22,18,28.7,28.7,0,0,1-12.2,11.81q-8,4.22-19.1,4.22H177.12V.86h22.66q11.13,0,19.1,4.23a28,28,0,0,1,12.2,11.71A36.2,36.2,0,0,1,235.3,34.66ZM198.92,58.75q12.18,0,18.72-6.33t6.52-17.76q0-11.43-6.52-17.76t-18.72-6.34H188.07V58.75ZM257.26.86V68.64H246.31V.86Zm68.06,67.78H314.37l-32.93-50v50H270.5V1h10.94l32.93,50.21V1h10.95ZM369.57.29q12.09,0,20.16,6a28,28,0,0,1,10.66,16.22H388.87a18.38,18.38,0,0,0-7.3-8.73,21.24,21.24,0,0,0-11.9-3.27,22.25,22.25,0,0,0-11.43,3,20.88,20.88,0,0,0-7.87,8.45,28,28,0,0,0-2.78,12.86,28.75,28.75,0,0,0,2.88,13.35,20.35,20.35,0,0,0,8.06,8.54,25,25,0,0,0,12.19,2.88,21.57,21.57,0,0,0,14.5-5.18q6-5.28,7.29-14.4H367.65V31.87h34.08V42.34A32.46,32.46,0,0,1,396.35,56a30.05,30.05,0,0,1-11,9.69,32.54,32.54,0,0,1-15.64,3.65,34.14,34.14,0,0,1-17.48-4.41,30.29,30.29,0,0,1-11.71-12.2,38.07,38.07,0,0,1-4.13-18,37.49,37.49,0,0,1,4.13-17.85A29.66,29.66,0,0,1,352.1,4.7,34.1,34.1,0,0,1,369.57.29Zm110.29,50.3a18.85,18.85,0,0,1-2.4,9.31,17.58,17.58,0,0,1-7.3,6.82,25.35,25.35,0,0,1-12,2.59,30.48,30.48,0,0,1-12.38-2.4A22,22,0,0,1,437,60a19.45,19.45,0,0,1-3.74-10.18H445a12.13,12.13,0,0,0,3.74,7.59,12.5,12.5,0,0,0,8.93,3.17q5,0,7.68-2.69A9.17,9.17,0,0,0,468.14,51a8.74,8.74,0,0,0-2-6,14,14,0,0,0-5-3.74q-3-1.35-8.16-3.07a74.62,74.62,0,0,1-10.37-4,18.86,18.86,0,0,1-6.72-5.86q-2.79-3.84-2.79-10.08a17.2,17.2,0,0,1,2.69-9.6,17.22,17.22,0,0,1,7.68-6.34A27.32,27.32,0,0,1,455,0q10.36,0,16.42,5a18.79,18.79,0,0,1,7,13.06H466.61A11.22,11.22,0,0,0,463,11.52c-1.92-1.86-4.58-2.78-8-2.78a10.93,10.93,0,0,0-7.39,2.4c-1.86,1.53-2.78,3.77-2.78,6.72a8.71,8.71,0,0,0,1.92,5.76,14.31,14.31,0,0,0,4.8,3.55q3,1.24,8.06,3a64.64,64.64,0,0,1,10.46,4.13A18.2,18.2,0,0,1,477,40.22Q479.86,44.17,479.86,50.59ZM522.2,0a33.11,33.11,0,0,1,17,4.42,31,31,0,0,1,12,12.38,35.91,35.91,0,0,1,4.41,17.86,36.45,36.45,0,0,1-4.41,18A31.88,31.88,0,0,1,539.2,65a33.11,33.11,0,0,1-17,4.42A33.79,33.79,0,0,1,505,65a32.73,32.73,0,0,1-12-12.38,36.45,36.45,0,0,1-4.42-18A35.92,35.92,0,0,1,493,16.8,31.83,31.83,0,0,1,505,4.42,33.79,33.79,0,0,1,522.2,0Zm0,10.18a22.59,22.59,0,0,0-11.61,3,20.61,20.61,0,0,0-8,8.55,28.56,28.56,0,0,0-2.78,13,28.62,28.62,0,0,0,2.78,13,20.59,20.59,0,0,0,8,8.54,22.6,22.6,0,0,0,11.61,3,21.94,21.94,0,0,0,11.43-3,20,20,0,0,0,7.87-8.54,27.88,27.88,0,0,0,2.88-13,27.82,27.82,0,0,0-2.88-13,20,20,0,0,0-7.87-8.55A21.93,21.93,0,0,0,522.2,10.18ZM598.05,0a33.1,33.1,0,0,1,17,4.42A31,31,0,0,1,627,16.8a35.92,35.92,0,0,1,4.42,17.86,36.45,36.45,0,0,1-4.42,18A31.88,31.88,0,0,1,615,65a33.1,33.1,0,0,1-17,4.42A33.8,33.8,0,0,1,580.86,65a32.88,32.88,0,0,1-12-12.38,36.45,36.45,0,0,1-4.41-18,35.91,35.91,0,0,1,4.41-17.86,32,32,0,0,1,12-12.38A33.8,33.8,0,0,1,598.05,0Zm0,10.18a22.63,22.63,0,0,0-11.62,3,20.61,20.61,0,0,0-8,8.55,28.69,28.69,0,0,0-2.78,13,28.75,28.75,0,0,0,2.78,13,20.59,20.59,0,0,0,8,8.54,22.63,22.63,0,0,0,11.62,3,21.9,21.9,0,0,0,11.42-3,19.93,19.93,0,0,0,7.87-8.54,27.88,27.88,0,0,0,2.88-13,27.82,27.82,0,0,0-2.88-13,20,20,0,0,0-7.87-8.55A21.9,21.9,0,0,0,598.05,10.18Zm99.27,58.46h-11l-32.93-50v50H642.5V1h10.94l32.93,50.21V1h11Z"/><path class="cls-1" d="M624,91.64v13H0v-13Z"/><path class="cls-1" d="M684.4,92H697v12.6H684.4Z"/><path class="cls-1" d="M660.1,92h12.6v12.6H660.1Z"/><path class="cls-1" d="M635.81,92h12.6v12.6h-12.6Z"/></svg>