<svg id="Layer_1" data-name="Layer 1" xmlns="http://www.w3.org/2000/svg" viewBox="0 0 271 155"><defs><style>.cls-1{fill:#f9f9fa;}</style></defs><title>OPLogo</title><path class="cls-1" d="M7.39,40.4H23.21v5.77H0V.39H7.39Z"/><path class="cls-1" d="M56.3,36.25H37l-3.5,9.92H25.57L42.42,1.1h8.5L67.71,46.17H59.8Zm-2.07-5.71L46.64,9.14l-7.59,21.4Z"/><path class="cls-1" d="M110.23,46.17h-7.4L80.59,12.39V46.17H73.2V.45h7.39l22.24,33.92V.45h7.4Z"/><path class="cls-1" d="M158.47,23.21a24.8,24.8,0,0,1-2.85,12.13,19.42,19.42,0,0,1-8.24,8,27.24,27.24,0,0,1-12.9,2.85h-15.3V.39h15.3a27.24,27.24,0,0,1,12.9,2.85,19,19,0,0,1,8.24,7.91A24.44,24.44,0,0,1,158.47,23.21ZM133.89,39.49q8.24,0,12.65-4.28t4.41-12q0-7.71-4.41-12T133.89,6.94h-7.32V39.49Z"/><path class="cls-1" d="M173.3.39V46.17h-7.39V.39Z"/><path class="cls-1" d="M219.27,46.17h-7.39L189.64,12.39V46.17h-7.4V.45h7.4l22.24,33.92V.45h7.39Z"/><path class="cls-1" d="M249.16,0q8.18,0,13.62,4A18.91,18.91,0,0,1,270,15H262.2a12.39,12.39,0,0,0-4.93-5.9,14.37,14.37,0,0,0-8-2.21,15,15,0,0,0-7.72,2,14.19,14.19,0,0,0-5.32,5.71,19,19,0,0,0-1.88,8.69,19.36,19.36,0,0,0,1.95,9,13.69,13.69,0,0,0,5.45,5.77A16.86,16.86,0,0,0,249.94,40a14.56,14.56,0,0,0,9.79-3.5,15.13,15.13,0,0,0,4.93-9.73H247.87V21.33h23V28.4a21.89,21.89,0,0,1-3.64,9.21,20.35,20.35,0,0,1-7.45,6.55,22.11,22.11,0,0,1-10.57,2.46,23,23,0,0,1-11.8-3,20.4,20.4,0,0,1-7.92-8.24,25.78,25.78,0,0,1-2.78-12.12,25.42,25.42,0,0,1,2.78-12.06A20.06,20.06,0,0,1,237.36,3,23,23,0,0,1,249.16,0Z"/><path class="cls-1" d="M50.07,110.94a19.12,19.12,0,0,1-2.43,9.43,17.83,17.83,0,0,1-7.39,6.91,25.75,25.75,0,0,1-12.16,2.62,31,31,0,0,1-12.55-2.43,22.12,22.12,0,0,1-8.85-7A19.65,19.65,0,0,1,2.9,110.16H14.76a12.28,12.28,0,0,0,3.8,7.68,12.63,12.63,0,0,0,9,3.21c3.37,0,6-.91,7.78-2.72a9.32,9.32,0,0,0,2.82-7,8.84,8.84,0,0,0-2-6,14.09,14.09,0,0,0-5.06-3.79c-2-.91-4.76-1.94-8.26-3.11A73.15,73.15,0,0,1,12.33,94.3a19.14,19.14,0,0,1-6.81-5.93Q2.7,84.49,2.7,78.16a17.4,17.4,0,0,1,2.73-9.73A17.3,17.3,0,0,1,13.21,62a27.66,27.66,0,0,1,11.67-2.33q10.5,0,16.63,5.06A19,19,0,0,1,48.61,78h-12A11.36,11.36,0,0,0,33,71.35c-1.94-1.88-4.64-2.82-8.07-2.82A11.08,11.08,0,0,0,17.39,71a8.34,8.34,0,0,0-2.82,6.81,8.82,8.82,0,0,0,1.94,5.83,14.23,14.23,0,0,0,4.87,3.6c2,.85,4.73,1.85,8.17,3a65.13,65.13,0,0,1,10.6,4.18,18.31,18.31,0,0,1,7,6Q50.08,104.42,50.07,110.94Z"/><path class="cls-1" d="M93,59.68a33.59,33.59,0,0,1,17.21,4.47A31.46,31.46,0,0,1,122.35,76.7a36.38,36.38,0,0,1,4.47,18.09A36.92,36.92,0,0,1,122.35,113a32.31,32.31,0,0,1-12.16,12.55A33.59,33.59,0,0,1,93,130a34.3,34.3,0,0,1-17.41-4.47A33.17,33.17,0,0,1,63.41,113a36.82,36.82,0,0,1-4.48-18.19A36.28,36.28,0,0,1,63.41,76.7,32.27,32.27,0,0,1,75.57,64.15,34.3,34.3,0,0,1,93,59.68ZM93,70a22.86,22.86,0,0,0-11.77,3,20.9,20.9,0,0,0-8.08,8.66,29,29,0,0,0-2.82,13.13,29,29,0,0,0,2.82,13.13,20.9,20.9,0,0,0,8.08,8.66,22.86,22.86,0,0,0,11.77,3,22.15,22.15,0,0,0,11.57-3,20.31,20.31,0,0,0,8-8.66,28.26,28.26,0,0,0,2.91-13.13,28.26,28.26,0,0,0-2.91-13.13,20.31,20.31,0,0,0-8-8.66A22.15,22.15,0,0,0,93,70Z"/><path class="cls-1" d="M169.82,59.68A33.65,33.65,0,0,1,187,64.15,31.5,31.5,0,0,1,199.19,76.7a36.28,36.28,0,0,1,4.48,18.09A36.82,36.82,0,0,1,199.19,113,32.36,32.36,0,0,1,187,125.53,33.65,33.65,0,0,1,169.82,130a34.32,34.32,0,0,1-17.41-4.47A33.24,33.24,0,0,1,140.25,113a36.92,36.92,0,0,1-4.47-18.19,36.38,36.38,0,0,1,4.47-18.09,32.34,32.34,0,0,1,12.16-12.55A34.32,34.32,0,0,1,169.82,59.68Zm0,10.31a22.88,22.88,0,0,0-11.77,3A20.82,20.82,0,0,0,150,81.66a29,29,0,0,0-2.82,13.13A29,29,0,0,0,150,107.92a20.82,20.82,0,0,0,8.07,8.66,22.88,22.88,0,0,0,11.77,3,22.15,22.15,0,0,0,11.57-3,20.25,20.25,0,0,0,8-8.66,28.26,28.26,0,0,0,2.92-13.13,28.26,28.26,0,0,0-2.92-13.13,20.25,20.25,0,0,0-8-8.66A22.15,22.15,0,0,0,169.82,70Z"/><path class="cls-1" d="M270.39,129.22H259.31L225.94,78.55v50.67H214.86V60.65h11.08l33.37,50.87V60.65h11.08Z"/><path class="cls-1" d="M198,142v13H0V142Z"/><path class="cls-1" d="M258.4,142.32H271v12.6H258.4Z"/><path class="cls-1" d="M234.1,142.32h12.6v12.6H234.1Z"/><path class="cls-1" d="M209.81,142.32H222.4v12.6H209.81Z"/></svg>